<svg width="128" height="128" xmlns="http://www.w3.org/2000/svg" fill="none">

 <g>
  <title>Layer 1</title>
  <path id="svg_1" fill="#FF4F02" d="m40.2393,52.5128c0.5453,0.9606 0.2085,2.1814 -0.7521,2.7266l-15.3602,8.7179l15.324,8.2833c0.9717,0.5252 1.3336,1.7387 0.8084,2.7104c-0.5253,0.9717 -1.7388,1.3337 -2.7105,0.8084l-16.912,-9.1416c-2.0733,-1.1207 -2.104,-4.0848 -0.0542,-5.2482l16.9301,-9.609c0.9606,-0.5452 2.1813,-0.2084 2.7265,0.7522z" clip-rule="evenodd" fill-rule="evenodd"/>
  <path id="svg_2" fill="#FF4F02" d="m87.2606,52.5128c-0.5452,0.9606 -0.2085,2.1814 0.7522,2.7266l15.3602,8.7179l-15.3241,8.2833c-0.9717,0.5252 -1.3336,1.7387 -0.8083,2.7104c0.5252,0.9717 1.7387,1.3337 2.7104,0.8084l16.912,-9.1416c2.073,-1.1207 2.104,-4.0848 0.054,-5.2482l-16.9298,-9.609c-0.9606,-0.5452 -2.1814,-0.2084 -2.7266,0.7522z" clip-rule="evenodd" fill-rule="evenodd"/>
  <path id="svg_3" fill="#FF4F02" d="m82.9142,53.5858c0.781,0.781 0.781,2.0474 0,2.8284l-17.9143,17.9142c-0.375,0.3751 -0.8856,0.5858 -1.416,0.5858c-1.9982,0 -1.9982,0 -1.9982,0c0,0 0,0 0,-1.9981c0,-0.5305 0.2107,-1.041 0.5858,-1.4161l17.9142,-17.9142c0.7811,-0.7811 2.0474,-0.7811 2.8285,0z" clip-rule="evenodd" fill-rule="evenodd"/>
  <path id="svg_4" fill="white" d="m37.7314,46l-9.5,6c0,0 -7.5,-11 5,-20c-2.5,9.5 4.5,14 4.5,14z"/>
  <path id="svg_5" fill="white" d="m99.5,52l-9.5,-6c0,0 7,-4.5 4.5,-14c12.5,9 5,20 5,20z"/>
  <path id="svg_6" fill="white" d="m52,40c-1.1045,0 -2,0.8954 -2,2l0,1l-4,0c-1.1045,0 -2,0.8954 -2,2l0,44c0,1.1046 0.8955,2 2,2l36,0c1.1046,0 2,-0.8954 2,-2l0,-24c0,-1.1046 -0.8954,-2 -2,-2c-1.1045,0 -2,0.8954 -2,2l0,22l-32,0l0,-40l2,0l0,1c0,1.1046 0.8955,2 2,2c1.1046,0 2,-0.8954 2,-2l0,-1l4,0l0,1c0,1.1046 0.8955,2 2,2c1.1046,0 2,-0.8954 2,-2l0,-1l4,0l0,1c0,1.1046 0.8955,2 2,2c1.1046,0 2,-0.8954 2,-2l0,-1l4,0l0,1c0,1.1046 0.8955,2 2,2c1.1046,0 2,-0.8954 2,-2l0,-1l2,0l0,1c0,1.1046 0.8955,2 2,2c1.1046,0 2,-0.8954 2,-2l0,-3c0,-1.1046 -0.8954,-2 -2,-2l-4,0l0,-1c0,-1.1046 -0.8954,-2 -2,-2c-1.1045,0 -2,0.8954 -2,2l0,1l-4,0l0,-1c0,-1.1046 -0.8954,-2 -2,-2c-1.1045,0 -2,0.8954 -2,2l0,1l-4,0l0,-1c0,-1.1046 -0.8954,-2 -2,-2c-1.1045,0 -2,0.8954 -2,2l0,1l-4,0l0,-1c0,-1.1046 -0.8954,-2 -2,-2z"/>
  <path id="svg_7" fill="white" d="m54,57c-1.1045,0 -2,0.8954 -2,2c0,1.1046 0.8955,2 2,2l12,0c1.1046,0 2,-0.8954 2,-2c0,-1.1046 -0.8954,-2 -2,-2l-12,0z"/>
  <path id="svg_8" fill="white" d="m54,66c-1.1045,0 -2,0.8954 -2,2c0,1.1046 0.8955,2 2,2l5,0c1.1046,0 2,-0.8954 2,-2c0,-1.1046 -0.8954,-2 -2,-2l-5,0z"/>
  <path id="svg_9" fill="white" d="m52,77c0,-1.1046 0.8955,-2 2,-2l3,0c1.1046,0 2,0.8954 2,2c0,1.1046 -0.8954,2 -2,2l-3,0c-1.1045,0 -2,-0.8954 -2,-2z"/>
 </g>
</svg>