<svg xmlns="http://www.w3.org/2000/svg" xmlns:xlink="http://www.w3.org/1999/xlink" width="32" height="32" viewBox="0 0 32 32" fill="none"><g opacity="1" transform="translate(0 0)  rotate(0 16.000000000000004 15.999999999999998)"><path id="矩形 1" fill-rule="evenodd" transform="translate(0 0)  rotate(0 16.000000000000004 15.999999999999998)" opacity="1" d="M0,32L32,32L32,0L0,0L0,32Z " /><g opacity="1" transform="translate(8 9.160587711108064)  rotate(0 8 6.839412288892034)"><path id="路径 1" fill-rule="evenodd" style="fill:#ECCB47" transform="translate(10.701442076627993 0.6728360350255952)  rotate(0 0.7469465537587183 0.7528487295968984)" opacity="1" d="M1.47,0.98C1.56,0.51 1.4,0.15 1.02,0.04C0.49,-0.11 0.06,0.15 0.01,0.64C-0.04,1.06 0.15,1.39 0.46,1.47C0.98,1.59 1.38,1.4 1.47,0.98Z " /><path id="分组 1" fill-rule="evenodd" style="fill:#FFFFFF" transform="translate(0 0.12631577872182229)  rotate(0 8 6.776254399531123)" opacity="1" d="M15.93 12.82C15.99 12.62 16 12.05 16 7.58C16 3.14 15.99 2.57 15.94 2.59C15.88 2.61 15.87 2.51 15.87 1.86C15.87 0.92 15.79 0.59 15.5 0.28C15.24 -0.01 15.87 0.02 8.13 0C3.1 -0.01 1.07 0 0.95 0.04C0.49 0.16 0.24 0.51 0.17 1.1C0.11 1.56 0.11 2.38 0.17 2.42C0.24 2.46 0.21 2.55 0.13 2.57C0.08 2.59 0.05 2.65 0.03 2.76C0.01 2.85 0 5.03 0 7.62C0 13.03 0 12.95 0.33 13.27C0.4 13.33 0.54 13.42 0.66 13.47C0.86 13.55 1.07 13.55 7.99 13.55C15.06 13.55 15.12 13.55 15.34 13.47C15.64 13.35 15.84 13.13 15.93 12.82Z " /><path id="路径 4" fill-rule="evenodd" style="fill:#DA575D" transform="translate(13.852631935649292 0.6768703608424842)  rotate(0 0.7368419787398894 0.7474498344706808)" opacity="1" d="M1.19,1.39C1.39,1.28 1.47,1.08 1.47,0.74C1.47,0.4 1.4,0.24 1.19,0.11C1.01,0 0.69,-0.03 0.48,0.03C0.16,0.13 0,0.37 0,0.72C0,1.09 0.13,1.32 0.4,1.45C0.57,1.53 1.01,1.5 1.19,1.39Z " /><path id="路径 5" fill-rule="evenodd" style="fill:#21A6AF" transform="translate(12.295952453503055 0.7104056133435346)  rotate(0 0.7312243596790818 0.7356607638808675)" opacity="1" d="M1.3,1.25C1.43,1.11 1.44,1.07 1.46,0.79C1.49,0.25 1.27,0 0.75,0C0.39,0 0.2,0.08 0.08,0.28C0,0.41 -0.01,0.47 0.01,0.79C0.03,1.15 0.03,1.15 0.18,1.29C0.27,1.36 0.39,1.44 0.44,1.44C0.8,1.52 1.11,1.44 1.3,1.25Z " /><path id="分组 2" fill-rule="evenodd" style="fill:#2F4C5A" transform="translate(0.005633682001744611 0)  rotate(0 7.993915142389318 5.607833546102656)" opacity="1" d="M6.79531 11.2163C7.08531 11.2163 7.17531 11.2063 7.20531 11.1563C7.22531 11.1163 7.69531 9.82628 8.26531 8.26628C8.82531 6.71628 9.31531 5.39628 9.33531 5.32628C9.39531 5.17628 9.36531 5.16628 8.92531 5.18629C8.58531 5.19628 8.56531 5.19628 8.53531 5.29628C8.52531 5.35628 8.03531 6.70628 7.45531 8.28628C6.87531 9.87628 6.40531 11.1863 6.41531 11.1963C6.42531 11.2063 6.59531 11.2163 6.79531 11.2163Z M4.70753 7.32392C5.30753 6.99392 5.81753 6.70392 5.82753 6.68392C5.86753 6.62392 5.87753 5.80392 5.84753 5.78392C5.82753 5.77392 5.22753 6.09392 4.49753 6.48392C3.76753 6.87392 2.91753 7.33392 2.61753 7.50392C2.07753 7.79392 2.05753 7.80392 2.05753 7.94392C2.05753 8.03392 2.08753 8.09392 2.14753 8.13392C2.20753 8.17392 3.04753 8.63392 4.01753 9.17392C4.98753 9.70392 5.79753 10.1439 5.81753 10.1439C5.83753 10.1439 5.84753 9.99393 5.85753 9.80392C5.85753 9.62392 5.86753 9.41393 5.86753 9.35392C5.86753 9.25392 5.79753 9.20392 4.89753 8.70392C4.36753 8.40392 3.85753 8.13392 3.77753 8.09392C3.68753 8.05392 3.61753 8.00392 3.61753 7.97392C3.61753 7.95392 4.10753 7.65392 4.70753 7.32392Z M10.1717 5.7712C10.1517 5.7612 10.1417 5.9612 10.1517 6.2312L10.1617 6.7012L11.2617 7.3112C11.8517 7.6412 12.3617 7.9312 12.3817 7.9412C12.4017 7.9612 11.9017 8.2612 11.2817 8.6012L10.1417 9.2312L10.1417 9.6912C10.1417 9.9312 10.1617 10.1412 10.1817 10.1412C10.1917 10.1412 10.7317 9.8512 11.3717 9.5012C12.0017 9.1612 12.8317 8.7012 13.2217 8.4912C13.6117 8.2712 13.9417 8.0612 13.9517 8.0312C13.9717 7.9812 13.9717 7.9212 13.9517 7.8812C13.9417 7.8212 13.2417 7.4212 12.0717 6.7912C11.0517 6.2412 10.1917 5.7712 10.1717 5.7712Z M15.38 0.09C15.27 0.02 14.68 0.02 8.12 0C3 -0.01 0.94 0 0.82 0.04C0.55 0.11 0.32 0.29 0.19 0.53C0.04 0.81 -0.01 1.27 0 2.08L0.02 2.67L7.95 2.69C12.32 2.7 15.91 2.71 15.93 2.71C15.99 2.7 16.01 1.25 15.95 0.96C15.86 0.55 15.66 0.24 15.38 0.09Z M11.9171 1.82115C11.9971 1.73115 12.0671 1.45115 12.0471 1.29115C12.0271 1.12115 11.7971 0.891148 11.5771 0.841148C11.1571 0.721148 10.7371 1.15115 10.8571 1.59115C10.9571 1.97115 11.3671 2.14115 11.7371 1.95115C11.7971 1.92115 11.8771 1.86115 11.9171 1.82115Z M13.5689 1.16907C13.3489 0.749066 12.7389 0.719066 12.4989 1.11907C12.4189 1.23907 12.4089 1.30907 12.4289 1.49907C12.4489 1.70907 12.4689 1.75907 12.6089 1.87907C12.7389 1.99907 12.8189 2.02907 12.9789 2.04907C13.0089 2.04907 13.0889 2.03907 13.1689 2.01907C13.5289 1.91907 13.7289 1.48907 13.5689 1.16907Z M15.1175 1.12045C14.8775 0.760452 14.4175 0.720452 14.1375 1.03045C13.9275 1.28045 13.9275 1.56045 14.1275 1.81045C14.3475 2.06045 14.6275 2.11045 14.9175 1.94045C15.1775 1.79045 15.2775 1.36045 15.1175 1.12045Z " /></g></g></svg>